<?xml version="1.0" encoding="utf-8"?>
<!-- Generator: Adobe Illustrator 17.1.0, SVG Export Plug-In . SVG Version: 6.00 Build 0)  -->
<!DOCTYPE svg PUBLIC "-//W3C//DTD SVG 1.1//EN" "http://www.w3.org/Graphics/SVG/1.1/DTD/svg11.dtd">
<svg version="1.1" id="Layer_1" xmlns="http://www.w3.org/2000/svg" xmlns:xlink="http://www.w3.org/1999/xlink" x="0px" y="0px"
	 viewBox="0 0 765.12 402.72" enable-background="new 0 0 765.12 402.72" xml:space="preserve">
<g>
	<path d="M337.834,201.365c0,50.663,0,101.326,0,152.151c-17.786,0-35.339,0-52.887,0c-0.476-1.74-0.614-287.39-0.125-290.575
		c24.101,0,48.223,0,72.626,0c2.144,7.742,4.305,15.543,6.487,23.421c-0.553,0.108-0.917,0.179-1.496,0.292
		c-0.3,2.754-0.566,5.58-0.934,8.391c-0.165,1.258-0.427,2.526-0.836,3.724c-1.253,3.673-1.393,7.051,2.104,9.674
		c0.084,0.063,0.043,0.293,0.08,0.615c-1.618,0.247-3.004-0.731-4.53-0.845c-2.3,1.685-2.328,1.78-1.409,4.263
		c0.359,0.969,0.701,1.945,1.042,2.92c0.02,0.058-0.038,0.144-0.059,0.217c-0.134,0.041-0.336,0.159-0.392,0.11
		c-2.094-1.817-4.194-3.628-6.238-5.499c-0.387-0.354-0.696-0.933-0.782-1.452c-0.638-3.846-2.159-7.51-2.13-11.506
		c0.02-2.7-1.4-4.864-3.432-6.596c-1.09-0.929-2.217-1.813-3.416-2.789c0.246-0.553,0.54-1.025,0.67-1.539
		c0.405-1.596,0.143-2.972-1.308-4.02c-4.278-3.088-8.815-5.423-14.253-5.626c-4.298-0.161-8.586-0.546-12.882-0.761
		c-1.265-0.063-2.155-0.314-2.367-1.774c-0.125-0.856-0.471-1.694-0.819-2.497c-0.199-0.458-0.6-0.827-1.338-1.801
		c0.28,3.726-1.424,5.07-4.326,5.467c0.818,0.335,1.636,0.67,2.882,1.181c-2.195,0.542-3.932,0.972-5.669,1.401
		c-0.028,0.119-0.057,0.238-0.085,0.356c2.638,0.73,5.277,1.46,8.055,2.229c0.997,3.125,2.009,6.295,3.073,9.631
		c-2.223,0-4.176,0-6.412,0c0.043,0.551,0.025,1.234,0.159,1.886c0.451,2.188,0.898,4.379,1.465,6.538
		c0.261,0.994,0.172,1.845-0.212,2.772c-1.539,3.716-2.556,7.556-2.822,11.708c-0.334-1.241-0.692-2.477-0.995-3.726
		c-0.488-2.014-1.055-4.018-1.375-6.06c-0.319-2.033-0.507-4.107-0.516-6.164c-0.011-2.604-1.109-3.493-3.601-2.628
		c-0.603,0.209-1.195,0.452-1.792,0.677c-0.51,0.192-1.022,0.382-1.923,0.717c0-1.477,0.076-2.713-0.014-3.937
		c-0.252-3.412-3.009-5.407-6.281-4.533c-0.474,0.127-0.981,0.567-1.233,1.001c-0.68,1.172-1.285,2.396-1.818,3.643
		c-0.824,1.928-0.805,3.76,0.237,5.729c2.052,3.88,3.703,7.941,4.322,12.516c-1.082,0-2.077,0-3.423,0
		c0.476,1.554,0.899,2.934,1.377,4.495c2.033-0.928,3.888-1.775,5.742-2.621c0.266,0.333,0.501,0.494,0.536,0.691
		c0.393,2.215,1.37,3.739,3.861,4.082c1.782,0.246,2.43,1.698,2.435,3.366c0.004,1.153-0.161,2.307-0.292,3.99
		c1.764-3.4,3.28-6.321,4.796-9.242c0.441,2.423,0.714,4.961,1.397,7.382c0.708,2.51,1.814,4.908,2.849,7.626
		c-1.514,0.074-2.97,0.145-4.401,0.215c-1.278,2.419-1.253,4.946-0.814,7.348c0.499,2.732,2.642,4.304,5.12,5.28
		c1.479,0.583,3.042,0.963,4.58,1.388c7.179,1.982,14.421,3.662,21.938,3.149c6.5-0.443,12.079-2.9,16.028-8.302
		c0.922-1.261,1.506-2.77,2.387-4.433c1.589,1.017,3.03,1.938,4.506,2.883c-0.33,1.112-0.617,2.083-0.949,3.204
		c1.429,0.837,2.758,1.707,4.165,2.422c2.928,1.488,5.822,0.909,7.992-1.58c2.981-3.42,3.938-9.168,1.39-13.169
		c-2.176-3.417-2.679-6.977-0.119-10.513c0.187-0.259,0.315-0.561,0.47-0.843c0.184,0.056,0.369,0.112,0.553,0.168
		c6.909,24.999,13.818,49.998,20.727,74.996c0.144-0.014,0.288-0.028,0.432-0.043c0-43.017,0-86.034,0-129.226
		c17.831,0,35.387,0,52.964,0c0.474,1.565,0.673,286.742,0.161,290.536c-21.697,0-43.417,0-65.462,0
		c-14.293-50.673-28.615-101.45-42.936-152.226C338.17,201.314,338.002,201.339,337.834,201.365z M314.027,158.14
		c-0.228,0.02-0.455,0.041-0.683,0.061c-0.449-1.83-1.085-3.637-1.306-5.494c-0.358-3.002-1.897-4.93-4.621-6.044
		c-0.6-0.245-1.179-0.542-1.768-0.815c-0.118,0.148-0.237,0.296-0.355,0.444c1.062,1.617,2.123,3.233,3.186,4.852
		c-0.573,0.606-1.102,1.012-1.423,1.544c-0.387,0.641-0.889,1.414-0.832,2.087c0.23,2.76,0.653,5.504,1.023,8.391
		c0.951,0.043,1.738,0.156,2.513,0.101c2.688-0.192,5.201,0.216,7.611,1.55c1.716,0.95,3.684,1.129,5.603,0.638
		c1.386-0.355,2.743-0.865,4.062-1.426c5.302-2.252,10.697-4.194,16.372-5.293c0.853-0.165,1.71-0.442,2.491-0.82
		c1.296-0.627,1.807-1.61,1.456-2.942c-0.61-2.316-1.497-4.506-3.617-6.111c-0.442,0.702-0.845,1.342-1.205,1.912
		c-0.843-0.517-1.615-1.396-2.269-1.316c-1.941,0.239-4.07-0.009-5.738,1.33c-1.005,0.807-1.951,0.698-3.116,0.412
		c-4.414-1.084-8.855-2.063-13.297-3.033c-1.613-0.352-2.377,0.187-2.748,1.767c-0.072,0.308-0.042,0.638-0.095,0.952
		C314.862,153.306,314.443,155.723,314.027,158.14z M354.982,79.573c-0.871,0.236-1.74,0.767-2.444,0.602
		c-1.67-0.392-3.262-1.115-4.84-1.687c-0.141-1.957-0.266-3.689-0.382-5.297c-1.841-0.507-3.511-1.015-5.206-1.423
		c-1.992-0.48-3.149-0.033-4.482,1.636c1.331,0.717,2.65,1.427,4.026,2.167c-1.089,0.755-1.108,0.79-1.645,0.49
		c-1.044-0.583-2.06-1.215-3.094-1.817c-2.397-1.396-4.797-2.786-7.157-4.155c-1.098,1.249-1.08,1.241-0.72,2.078
		c1.009,2.345,2.743,3.775,5.174,4.601c3.39,1.153,6.718,2.495,10.05,3.814c3.18,1.259,5.935,3.083,7.701,6.14
		c0.14,0.242,0.464,0.377,0.775,0.617c0.841-0.686,1.618-1.32,2.349-1.915c1.089,0.455,2.029,0.889,2.999,1.239
		c0.72,0.26,1.492,0.263,1.847-0.565c0.406-0.945,0.808-1.928,0.97-2.933c0.198-1.225-0.872-1.952-1.988-1.408
		c-0.697,0.339-1.307,0.854-2.172,1.435C356.105,81.879,355.524,80.687,354.982,79.573z M353.728,146.727
		c-1.028,0.976-2.266,1.63-2.617,2.604c-0.549,1.521-0.655,3.261-0.634,4.903c0.011,0.854,0.575,1.79,1.114,2.523
		c0.57,0.775,3.026,0.866,3.534,0.224c-0.16-0.521-0.335-1.089-0.499-1.622c1.936-1.818,3.771-3.543,5.908-5.551
		c-1.487-1.327-2.823-2.52-4.318-3.854c0.155,1.244,0.289,2.312,0.422,3.379c-0.132,0.033-0.264,0.066-0.396,0.099
		C355.501,148.634,354.758,147.835,353.728,146.727z M326.339,67.823c-4.315,0.72-4.388,0.703-8.204-1.808
		c0.228,2.074,0.438,3.979,0.663,6.023c-1.161-0.184-1.993-0.315-2.865-0.453c0.359,3.084,2.484,3.703,7.322,2.965
		c-0.124-0.865-0.248-1.73-0.414-2.886c1.613,0.768,2.9,1.381,4.584,2.182C327.007,71.527,326.688,69.759,326.339,67.823z
		 M292.424,80.756c0.347,1.481,0.65,2.77,0.967,4.125c2.805-1.305,5.937-2.184,9.114-3.972c-2.065-0.549-3.675-0.966-5.278-1.406
		C295.269,78.966,293.644,79.5,292.424,80.756z M299.217,149.641c-2.32,0.833-2.319,0.833-4.098-0.798
		c-0.805-0.738-1.548-1.609-3.27-1.412c2.615,3.048,5.013,5.843,7.421,8.649C301.071,154.339,301.043,153.092,299.217,149.641z"/>
	<path d="M50.111,353.678c0-55.36,0-110.376,0-165.739c3.468,1.067,6.835,2.103,10.356,3.186c0.277-0.63,0.516-1.173,0.858-1.95
		c-1.411-0.721-2.738-1.406-4.071-2.079c-1.856-0.935-3.681-1.942-5.587-2.763c-1.304-0.562-1.706-1.363-1.697-2.762
		c0.061-9.039,0.031-18.079,0.031-27.119c0-2.873,0-5.746,0-8.798c1.08-0.439,2.067-0.969,3.119-1.241
		c1.913-0.495,3.811-0.85,5.591-1.894c1.784-1.047,3.062-0.388,5.146,2.05c-0.554,0.966-1.17,1.972-1.72,3.013
		c-1.844,3.493-2.356,7.082-0.759,10.829c0.532,1.248,0.972,2.536,1.479,3.795c1.681,4.178,2.444,5.875,8.252,7.01
		c-2.307,1.789-4.945,0.609-7.338,1.584c0.513,1.626,0.964,3.302,1.575,4.918c0.508,1.342,0.531,2.593,0.097,3.964
		c-0.722,2.28-1.312,4.603-1.919,6.918c-0.156,0.593-0.169,1.222-0.294,2.191c5.249-3.016,10.217-5.871,15.464-8.886
		c0.386,0.356,0.778,0.719,1.341,1.238c-2.925,2.578-5.523,4.868-8.122,7.159c3.175,0.307,6.075-0.247,8.554-2.116
		c2.665-2.009,2.819-5.004,2.583-8.625c2.08,1.783,3.723,3.191,5.485,4.701c2.047-3.405,4.009-6.671,6.035-10.043
		c1.948,0.848,3.006-0.113,4.086-1.483c2.562-3.248,5.516-6.019,9.825-6.781c1.31-0.232,1.846-1.098,1.899-2.57
		c-1.889-0.433-3.793-0.869-5.926-1.358c2.242-3.474,0.08-6.743-0.02-10.073c-0.061-2.042-1.133-3.304-2.751-4.399
		c-2.367-1.603-4.616-3.381-7.403-5.446c0.267,1.448,0.436,2.363,0.685,3.707c-3.298-2-6.136-4.022-8.945-6.084
		c0.067-0.161,0.135-0.322,0.202-0.483c1.061,0.141,2.122,0.281,3.469,0.46c0.053-0.893,0.102-1.714,0.16-2.695
		c-2.913-0.628-5.715-0.935-8.571-0.393c-0.939,0.178-1.879,0.356-2.815,0.55c-1.416,0.294-2.709-0.034-3.862-0.845
		c-1.655-1.163-3.417-1.29-5.235-0.568c-1.852,0.735-3.704,1.493-5.481,2.387c-2.846,1.432-5.666,2.142-8.636,0.389
		c-0.874-0.516-1.69-0.261-2.454,0.297c-0.81,0.591-1.622,1.179-2.659,1.931c0-2.958,0-5.623,0-8.487
		c2.277,0.311,3.482-1.123,4.654-2.662c0.764-1.004,1.619-1.938,2.631-3.137c-2.711-0.574-4.817,0.695-7.017,1.29
		c-0.516-1.883-0.734-57.184-0.243-62.844c0.867-0.039,1.783-0.115,2.7-0.116c24.799-0.007,49.599,0.009,74.398-0.015
		c5.913-0.006,11.808,0.184,17.665,1.061c13.012,1.947,24.724,6.696,34.592,15.662c10.436,9.482,16.094,21.235,17.287,35.214
		c0.075,0.874,0.07,1.757,0.07,2.635c0.003,60.558,0.053,121.117-0.039,181.675c-0.019,12.335-4.231,23.304-12.26,32.73
		c-9.921,11.647-22.71,18.08-37.63,20.626c-5.44,0.928-10.912,1.306-16.432,1.299c-25.759-0.036-51.519-0.016-77.278-0.016
		C52.288,353.678,51.338,353.678,50.111,353.678z M114.148,316.374c2.976-0.169,5.508-0.34,8.044-0.45
		c4.331-0.188,7.129-2.52,8.774-6.348c1.048-2.441,1.445-5.034,1.445-7.707c-0.014-48.708-0.01-97.417-0.01-146.125
		c0-3.433,0.03-6.866-0.017-10.299c-0.015-1.06,0.261-1.791,1.226-2.357c1.445-0.848,2.793-1.86,4.204-2.768
		c0.845-0.544,1.265-1.19,0.75-2.272c-1.967-0.411-3.98-0.832-6.163-1.289c0-0.973,0-1.842,0-2.71
		c0-6.478,0.065-12.958-0.039-19.435c-0.032-1.969-0.31-3.995-0.864-5.881c-1.217-4.137-3.908-6.903-8.269-7.762
		c-1.327-0.261-2.676-0.47-4.023-0.548c-1.632-0.094-3.273-0.022-5.047-0.022c0,1.084,0,1.955,0,2.827c0,7.598,0,15.196,0,22.795
		c0,5.504-0.008,5.494-4.192,9.117c-1.008,0.873-1.942,1.832-3.101,2.933c2.624,0.762,4.907,1.426,7.167,2.083
		c0,9.243,0,18.313,0,27.409c-0.73-0.158-1.365-0.482-1.931-0.388c-3.854,0.638-7.136,2.157-9.094,5.848
		c-0.929,1.751-2.087,3.394-3.263,4.997c-1.463,1.993-3.104,3.856-4.574,5.844c-1.768,2.393-2.31,5.217-2.602,8.106
		c-0.098,0.976,0.211,1.718,1.118,2.171c0.682,0.341,1.356,0.699,2.101,1.085c1.226-1.948,2.396-3.665,3.406-5.471
		c0.524-0.937,1.141-1.428,2.208-1.555c1.234-0.147,2.448-0.465,4.022-0.779c-0.874-0.788-1.518-1.336-2.123-1.924
		c-0.614-0.597-1.403-1.21-0.123-2.195c3.297,2.607,7.038,1.672,10.971,1.006C114.148,228.354,114.148,272.148,114.148,316.374z
		 M80.728,121.468c0.252,2.406,0.246,2.441,2.34,2.861c1.556,0.311,3.133,0.517,4.666,0.765c1.104-1.734,1.038-2.047-0.79-4.059
		C85.501,119.446,84.083,119.545,80.728,121.468z"/>
	<path d="M760.399,210.12c0,31.832,0.051,63.665-0.028,95.497c-0.027,10.973-3.27,20.901-10.532,29.334
		c-4.499,5.225-10,9.146-16.057,12.33c-8.574,4.506-17.752,7.049-27.296,8.496c-8.245,1.25-16.539,1.551-24.83,1.211
		c-12.502-0.513-24.754-2.498-36.319-7.594c-6.695-2.95-12.943-6.607-18.184-11.809c-6.452-6.404-10.334-14.154-11.786-23.073
		c-0.561-3.446-0.847-6.975-0.85-10.467c-0.049-62.945-0.083-125.889,0.016-188.834c0.015-9.233,1.641-18.24,5.898-26.632
		c3.498-6.896,8.613-12.239,15.054-16.376c7.718-4.957,16.307-7.623,25.235-9.276c7.065-1.308,14.196-2.059,21.398-2.062
		c2.548-0.001,5.102-0.36,7.643-0.275c11.333,0.378,22.606,1.219,33.528,4.646c8.427,2.644,16.122,6.586,22.491,12.778
		c6.831,6.641,11.095,14.754,13.125,24.042c1.042,4.768,1.512,9.595,1.507,14.487C760.385,147.735,760.399,178.927,760.399,210.12z
		 M663.557,232.512c-2.45,0.639-3.735,0.442-5.797-0.84c-4.199-2.611-6.783-6.447-8.334-11.053
		c-0.276-0.819-0.469-1.665-0.694-2.476c-6.078,0.897-6.491,0.661-7.103-4.061c-1.1-0.368-2.257-0.756-3.895-1.304
		c1.813-0.538,3.164-0.939,4.796-1.424c-0.598-1.935-1.176-3.802-1.747-5.651c-0.974-0.13-1.762-0.225-2.548-0.342
		c-0.781-0.117-1.335-0.432-1.358-1.362c-0.022-0.895,0.445-1.294,1.227-1.503c1.807-0.482,3.602-0.611,5.606,0.154
		c-0.187,1.898,1.156,2.685,2.684,3.377c0.716,0.325,1.333,0.861,2.005,1.287c1.646,1.042,2.684,0.693,3.299-1.123
		c0.127-0.373,0.158-0.78,0.224-1.172c0.654-3.851,1.239-7.716,1.995-11.546c0.282-1.43,0.221-2.582-0.671-3.807
		c-0.939-1.29-0.739-2.213,0.375-3.411c0.424-0.456,0.914-0.851,1.426-1.322c0.471,0.527,0.878,0.983,1.352,1.515
		c1.895-1.479,3.399-3.187,3.888-5.417c0.481-2.193,0.507-4.486,0.741-6.819c1.35-0.483,3.053,0.534,4.997-0.455
		c-1.206-0.973-2.171-1.751-3.372-2.72c1.612-0.172,2.83-0.302,4.381-0.467c-0.597-0.624-0.887-0.98-1.229-1.277
		c-3.193-2.774-6.384-5.549-9.6-8.296c-0.73-0.623-1.214-1.28-0.844-2.264c0.332-0.882,0.135-2.212,1.794-2.122
		c1.067,1.576,2.158,3.187,3.399,5.02c1.633-1.901-0.742-3.335,0.03-4.901c2.321,0.314,4.646,0.628,6.976,0.943
		c0.206-2.275-0.303-3.967-1.783-5.323c-2.271-2.079-5.075-3.124-8.035-4.063c-0.37,1.002-0.675,1.817-0.971,2.635
		c-0.294,0.814-0.58,1.632-0.89,2.509c-0.551,0.037-1.022,0.057-1.491,0.103c-3.898,0.385-6.296,1.802-7.064,6.135
		c-0.315,1.778-1.083,3.495-1.796,5.176c-0.581,1.372-1.636,2.3-3.164,2.697c-1.62,0.42-3.197,1.007-4.801,1.495
		c-2.495,0.759-4.997,1.497-7.651,2.29c0.342,0.773,0.59,1.338,0.841,1.902c1.709,3.849,1.427,5.057-1.888,7.764
		c-0.988,0.807-1.409,1.837-0.87,2.955c1.096,2.27,0.476,4.328-0.473,6.409c-0.596,1.307-1.105,2.656-1.734,3.946
		c-1.773,3.638-1.334,7.104,0.714,10.47c0.208,0.341,0.398,0.695,0.623,1.024c2.021,2.954,3.303,6.183,3.654,9.76
		c0.097,0.992,0.408,1.824,1.272,2.449c1.193,0.863,1.561,2.149,1.639,3.57c0.121,2.227,0.377,4.449,0.43,6.676
		c0.104,4.357,1.465,8.291,3.727,11.965c1.382,2.245,2.822,4.461,4.06,6.784c0.786,1.476,1.872,2.508,3.203,3.457
		c2.715,1.935,5.726,3.474,7.895,6.151c2.206,2.723,5.174,3.511,8.599,3.069c5.449-0.703,10.921-1.233,16.365-1.968
		c5.204-0.702,10.385-1.572,15.435-2.347c1.412-2.739,2.745-5.276,4.034-7.836c1.239-2.459,3.113-4.028,5.916-4.273
		c0.928-0.081,1.884-0.072,2.806,0.054c1.902,0.26,3.454-0.153,4.599-1.821c0.538-0.784,1.21-1.49,1.894-2.158
		c1.756-1.714,3.66-2.841,6.218-1.565c0.502,0.25,1.309,0.335,1.792,0.107c3.318-1.565,6.815-2.897,9.822-4.941
		c5.541-3.767,10.787-7.968,16.149-11.999c0.542-0.407,1.033-0.883,1.973-1.693c-2.842-0.165-5.135-0.327-7.431-0.425
		c-4.431-0.19-7.327-2.486-7.751-6.325c-0.13-1.177-0.047-2.4,0.099-3.582c0.431-3.474,0.906-6.944,1.441-10.404
		c0.201-1.297,0.614-2.56,0.926-3.822c2.734,0.576,2.837,0.564,3.094,2.842c0.406,3.599,0.263,7.163-1.112,10.603
		c-0.727,1.818-1.031,3.745-0.269,5.61c0.337,0.826,0.948,1.835,1.691,2.146c2.496,1.045,5.18,1.352,7.901,1.532
		c1.253-2.982,3.697-4.552,6.014-6.259c2.332-1.718,4.213-3.853,5.96-6.55c-3.114-3.697-6.218-7.382-9.628-11.43
		c0.107,1.556,0.173,2.527,0.248,3.622c-1.229-0.155-2.164-0.271-3.099-0.39c-1.535-0.195-2.182-0.79-1.706-2.178
		c0.681-1.987,0.072-3.563-0.855-5.212c-0.745-1.324-1.387-2.713-0.801-4.416c0.892-0.416,1.751-0.545,2.539,0.338
		c1.703,1.909,0.637,3.691-0.488,5.696c1.327-0.139,2.377-0.25,3.549-0.373c0.069,0.82,0.123,1.454,0.192,2.277
		c1.921-0.578,3.617-1.088,5.491-1.652c-2.342-3.499-4.513-6.742-6.611-9.876c0.616-1.281,1.224-2.324,1.623-3.441
		c0.354-0.99,0.515-2.149-0.616-2.79c-3.256-1.844-6.483-3.848-10.531-2.798c-0.893,0.232-1.835,0.274-2.733,0.4
		c-1.294-2.625-1.969-4.995,0.36-7.325c-5.951-7.035-11.81-13.961-17.915-21.178c-1.274,2.458-2.788,1.383-4.398,0.759
		c-2.078-0.805-4.209-1.523-6.374-2.039c-4.965-1.183-9.96-2.241-14.951-3.312c-3.119-0.669-6.258-1.24-9.377-1.91
		c-2.054-0.442-3.794-0.127-5.071,1.7c-0.731,1.046-1.55,2.034-2.237,3.108c-1.698,2.657-3.585,5.037-6.622,6.353
		c-1.775,0.769-2.391,2.304-1.914,4.181c0.249,0.98,0.746,1.932,1.293,2.795c1.667,2.633,3.425,5.209,5.119,7.825
		c0.357,0.552,0.596,1.181,0.955,1.905c-2.148,0.558-3.973,1.032-5.807,1.508c0.06,0.453,0.062,0.69,0.124,0.91
		c1.199,4.266,0.061,7.806-3.16,10.817c-1.211,1.132-2.333,2.43-3.211,3.831c-1.057,1.684-1.025,3.559-0.123,5.567
		c0.47-0.514,0.805-0.881,1.399-1.532c0,2.184,0.107,4.003-0.019,5.805c-0.418,5.977,0.447,11.62,3.892,16.698
		c0.71,1.047,1.203,2.246,1.763,3.391c1.366,2.796,2.526,5.712,4.111,8.376c2.416,4.063,5.596,5.239,10.196,4.314
		c1.302-0.262,2.648-0.298,3.759-0.415c1.302,1.31,1.141,3.244,3.153,4.221c-0.121-1.306-0.209-2.246-0.307-3.303
		c5.178-1.39,10.242-2.749,15.459-4.149c0.817,1.264,1.576,2.437,2.43,3.758c-0.828,0.419-1.456,0.725-2.073,1.052
		c-2.18,1.158-2.581,2.126-1.86,4.499c0.116,0.381,0.247,0.765,0.429,1.118c1.159,2.255,1.334,4.737,1.621,7.183
		c0.035,0.297-0.429,0.652-0.823,1.209c-1.398-2.567-2.648-4.862-3.968-7.285c-3.126,0.692-5.726-0.862-8.474-2.131
		c-1.185,1.871,1.074,2.814,0.835,4.269c-1.721-0.403-3.063-2.081-4.995-1.146c-1.445,0.699-3.563,0.057-4.342,2.262
		c-0.842-0.484-1.638-1.025-2.501-1.416c-1.08-0.489-2.196-1.137-3.333-1.221c-3.275-0.244-5.924-1.766-8.451-3.641
		c-1.269-0.942-2.508-1.925-3.794-2.915c-1.66,1.129-3.163,2.15-4.744,3.225C662.444,230.984,662.98,231.719,663.557,232.512z"/>
	<path d="M470.344,184.556c0.693,0.221,1.141,0.364,1.715,0.548c-0.156,0.496-0.311,0.986-0.56,1.776
		c2.577,1.166,5.173,2.34,7.879,3.564c-0.15,0.783-0.327,1.706-0.532,2.772c1.468,0.752,3.16,1.236,4.377,0.033
		c0.976-0.965,1.299-2.591,1.925-3.955c0.732,0.352,1.489,0.716,2.678,1.288c0.102,0.379,0.344,1.278,0.62,2.303
		c0.908,0,1.842,0,2.948,0c0.908,2.068,1.798,4.093,2.715,6.181c1.388-0.855,1.812-2.22,2.022-3.621
		c0.199-1.328,0.184-2.688,0.274-4.209c2.393,0.023,3.659-1.734,5.085-2.752c0.237-1.451,0.391-2.684,0.687-3.881
		c0.043-0.175,0.764-0.183,1.561-0.349c-0.577,0.917-0.936,1.487-1.599,2.542c2.332-0.915,3.993-0.444,5.621,1.588
		c-0.221-2.938,1.445-3.251,3.115-3.6c1.561-0.326,3.11-0.708,4.663-1.071c3.191-0.745,5.975-2.211,8.232-4.625
		c0.25-0.267,0.587-0.452,1.267-0.962c0,1.306,0,2.228,0,3.15c0,42.316-0.002,84.632,0.013,126.948c0,1.105,0.031,2.255,0.326,3.306
		c0.539,1.921,2.093,3.028,3.822,3.725c4,1.612,7.966,1.408,11.761-0.7c1.716-0.953,2.66-2.488,2.882-4.439
		c0.072-0.633,0.076-1.277,0.076-1.915c0.004-16.958,0.003-33.917,0.003-50.875c0-0.713,0-1.427,0-2.436
		c-4.449-0.227-8.807,0.019-13.287-0.149c0-14.874,0-29.549,0-44.401c23.67,0,47.29,0,71.058,0c0,47.701,0,95.337,0,143.137
		c-0.641,0.069-1.251,0.191-1.86,0.192c-9.039,0.012-18.079-0.024-27.117,0.041c-1.506,0.011-2.26-0.549-2.93-1.85
		c-2.259-4.384-4.655-8.697-7.129-13.279c-1.815,1.498-3.47,2.836-5.095,4.211c-7.765,6.565-16.461,11.242-26.541,13.114
		c-6.55,1.217-13.128,1.375-19.773,0.869c-5.523-0.421-10.92-1.334-16.197-2.967c-8.147-2.521-15.435-6.604-21.471-12.642
		c-6.454-6.456-10.378-14.327-11.78-23.349c-0.549-3.531-0.874-7.134-0.879-10.705c-0.058-43.276-0.038-86.552-0.038-129.828
		c0-1.03,0-2.059,0-3.307c1.451-0.106,2.76-0.202,4.068-0.298c0.557,1.927-1.102,1.152-1.83,1.77c1.568,1.466,2.949,3.2,4.724,4.296
		C469.721,180.905,470.65,182.238,470.344,184.556z"/>
	<path d="M601.674,166.4c-19.294,0-38.321,0-57.653,0c-0.034-0.985-0.094-1.908-0.095-2.831
		c-0.005-17.919-0.004-35.838-0.004-53.756c0-0.56,0.003-1.12-0.001-1.68c-0.031-5.1-2.001-7.23-7.113-7.74
		c-2.406-0.24-4.788-0.207-7.114,0.515c-3.343,1.037-4.643,2.804-4.651,6.352c-0.015,6.56-0.005,13.119-0.005,19.679
		c0,0.556,0,1.111,0,1.771c-0.55,0.066-0.992,0.119-1.568,0.188c-0.124,0.719-0.254,1.476-0.452,2.624
		c-0.681-0.63-1.152-1.066-1.65-1.527c-3.789,0.38-5.376-1.119-5.205-5.092c0.688,0.18,1.353,0.354,2.018,0.528
		c0.081-0.103,0.161-0.205,0.242-0.308c-1.041-1.168-2.082-2.336-3.311-3.715c-1.353,3.079-2.399,5.857-2.306,9.017
		c-1.36-1.865-1.291-4.108-1.967-6.131c0.605-0.812,1.196-1.607,2.102-2.824c-3.247-0.058-5.538,1.746-8.312,1.958
		c0.135-1.808,0.262-3.498,0.404-5.404c-0.913,0.289-1.5,0.59-2.108,0.636c-0.658,0.051-1.661,0.112-1.944-0.262
		c-1.112-1.471-2.395-1.305-3.833-0.793c-0.299,0.106-0.622,0.146-1.117,0.258c0.061-0.944,0.12-1.841,0.182-2.796
		c-1.898-1.303-4.136-1.196-6.2-1.666c-1.55-0.353-3.18-0.358-4.724-0.731c-1.374-0.332-2.279-0.236-2.816,1.27
		c-0.365,1.023-1.302,1.599-2.288,0.857c-1.935-1.456-3.699-0.999-5.678,0.074c0.395-0.768,0.79-1.535,1.185-2.303
		c-0.085-0.123-0.17-0.246-0.255-0.369c-0.767,0.304-1.65,0.459-2.276,0.945c-1.134,0.88-2.179,0.819-3.32,0.156
		c-0.207-0.12-0.423-0.227-0.643-0.322c-3.034-1.313-5.636,0.148-5.608,3.471c0.015,1.777-0.453,3.009-1.675,4.126
		c-0.221,0.202-0.33,0.528-0.604,0.984c1.05,0.817,2.101,1.637,3.187,2.482c-0.951,1.468-1.62,2.5-2.332,3.599
		c-1.082-1.219-1.323-2.403-1.304-3.732c0.05-3.519-0.123-7.046,0.045-10.558c0.392-8.171,1.662-16.162,5.045-23.725
		c4.581-10.243,12.377-17.072,22.479-21.496c7.666-3.357,15.728-5.289,24.013-6.2c4.986-0.548,10.015-0.707,15.025-1.051
		c10.896-0.747,21.676,0.167,32.302,2.582c10.689,2.429,20.462,6.818,28.386,14.619c8.391,8.261,13.077,18.357,13.295,30.126
		c0.352,18.943,0.276,37.894,0.374,56.841C601.83,165.43,601.743,165.813,601.674,166.4z"/>
	<path d="M220.862,184.973c0.434-0.69,0.868-1.381,1.372-2.184c-1.185-0.599-2.028,0.01-2.677,0.568
		c-1.114,0.958-2.148,0.836-3.285,0.193c-0.208-0.118-0.43-0.213-0.647-0.313c-3.143-1.444-5.968,0.52-5.767,4.033
		c0.052,0.903,0.61,1.921-0.744,2.365c-0.514-1.76-0.758-120.695-0.26-126.451c1.863-0.526,55.855-0.771,63.445-0.287
		c0.057,0.056,0.114,0.112,0.169,0.17c0.054,0.057,0.151,0.117,0.151,0.176c0.038,44.541,0.069,89.083,0.096,133.624
		c0,0.631-0.057,1.263-0.094,2.037c-0.89,0.121-1.728,0.235-2.599,0.353c-0.193,0.715-0.386,1.432-0.696,2.581
		c-0.988-1.586-2.195-1.627-3.546-1.66c-2.144-0.052-3.298-1.971-3.097-4.843c0.62,0.09,1.231,0.178,1.858,0.269
		c0.02-0.126,0.104-0.304,0.05-0.37c-0.945-1.154-1.908-2.295-3.093-3.709c-1.178,3.116-2.332,5.859-2.318,9.399
		c-1.418-2.262-1.236-4.479-1.916-6.45c0.608-0.819,1.19-1.602,2.086-2.808c-3.249,0.015-5.558,1.684-8.384,2.029
		c0.182-1.86,0.35-3.573,0.535-5.472c-0.604,0.184-0.994,0.246-1.333,0.415c-1.391,0.692-2.545,0.647-3.569-0.732
		c-0.273-0.367-1.098-0.485-1.65-0.444c-0.772,0.056-1.525,0.368-2.339,0.585c-0.079-0.278-0.213-0.502-0.19-0.709
		c0.266-2.435,0.192-2.6-2.069-3.011c-2.822-0.513-5.656-0.96-8.487-1.426c-1.318-0.217-2.496-0.31-3.064,1.387
		c-0.307,0.919-1.321,1.259-2.204,0.733C224.69,183.887,222.859,183.919,220.862,184.973z"/>
	<path d="M242.874,261.35c2.549,0.072,3.78-1.643,5.153-2.984c0.358-0.35,0.054-1.369,0.07-2.081
		c0.026-1.159,0.316-2.066,1.97-1.817c-0.422,0.76-0.787,1.416-1.354,2.438c2.169-0.872,3.735-0.366,5.122,1.468
		c0.369-1.126,0.625-1.91,0.925-2.827c6.47-1.236,13.102-2.338,17.28-8.261c0.287,0.124,0.365,0.147,0.43,0.189
		c0.06,0.039,0.151,0.099,0.151,0.149c0.037,34.62,0.068,69.239,0.093,103.859c0,0.627-0.071,1.254-0.118,2.034
		c-21.233,0-42.377,0-63.698,0c0-36.456,0-72.867,0-109.462c0.855-0.064,1.694-0.126,2.563-0.191
		c-0.205,1.376-0.205,1.376-2.362,1.54c2.114,1.83,3.958,3.516,5.907,5.07c0.849,0.677,1.705,1.233,1.546,2.464
		c-0.186,1.438,0.52,2.239,1.946,2.566c-0.619,0.939-0.486,1.586,0.434,2.008c2.167,0.993,4.33,1.995,6.772,3.121
		c-0.116,0.785-0.273,1.847-0.43,2.907c4.437,0.629,4.419,1.622,6.226-4.143c0.82,0.414,1.64,0.829,2.738,1.385
		c0.125,0.431,0.367,1.266,0.641,2.207c0.961,0.064,1.902,0.127,2.989,0.2c0.858,1.973,1.737,3.994,2.697,6.2
		c1.263-1.175,1.869-2.354,1.927-3.869C242.544,264.181,242.732,262.843,242.874,261.35z"/>
	<path d="M272.455,223.504c-1.023-2.624-2.106-5.227-3.047-7.88c-0.562-1.584-1.405-2.738-2.983-3.476
		c-1.354-0.634-2.557-1.59-3.977-2.5c0.381-0.568,0.702-1.045,1.089-1.622c-0.921-0.4-1.775-0.771-2.864-1.244
		c0.719-1.492,1.311-2.943,2.097-4.281c0.674-1.147,1.312-1.294,2.327-0.401c2.446,2.154,4.796,4.42,7.124,6.703
		c0.337,0.331,0.471,1.002,0.476,1.517c0.036,4.377,0.021,8.755,0.021,13.132C272.629,223.47,272.542,223.487,272.455,223.504z"/>
	<path d="M515.936,139.31c0.489-0.573,0.793-0.93,1.204-1.411c-0.88-0.415-1.704-0.803-2.844-1.34
		c0.701-1.465,1.329-2.892,2.059-4.264c0.504-0.948,1.404-1.187,2.205-0.48c2.091,1.847,4.116,3.773,6.11,5.726
		c0.284,0.278,0.348,0.879,0.352,1.332c0.028,3.352,0.015,6.705-0.365,10.206c-0.705-1.54-1.47-3.057-2.093-4.629
		c-0.408-1.028-1.004-1.662-2.021-2.18C518.947,141.456,517.507,140.34,515.936,139.31z"/>
	<path d="M467.905,149.245c-1.461,1.237-1.345,2.851-1.395,4.507c-0.087,2.917-1.078,5.532-3.393,7.95
		c-0.213-0.847-0.448-1.348-0.447-1.849c0.004-2.624-0.015-5.252,0.131-7.87C462.967,149.006,464.66,148.078,467.905,149.245z"/>
	<path d="M214.159,219.478c-0.196,0.332-0.327,0.711-0.585,0.961c-0.624,0.604-0.696,1.213-0.636,2.11
		c0.209,3.108-0.636,5.982-2.559,8.485c-0.18,0.234-0.462,0.389-0.923,0.765c-0.11-0.633-0.243-1.053-0.246-1.475
		c-0.019-2.712-0.04-5.425-0.003-8.138C209.248,219.265,211.264,218.128,214.159,219.478z"/>
	<path d="M480.996,124.974c-1.911-1.46-3.182-3.189-4.236-5.144c1.506-1.795,3.515-1.867,5.64-2.385
		C482.165,120.066,484.114,122.754,480.996,124.974z"/>
	<path d="M228.851,187.645c0.065,1.85,0.264,3.506,0.116,5.131c-0.066,0.729-0.715,1.538-1.33,2.012
		c-0.212,0.164-1.255-0.453-1.685-0.926c-1.002-1.099-1.864-2.327-2.823-3.555C224.559,188.21,226.667,188.186,228.851,187.645z"/>
	<path d="M239.58,256.733c-1.676-1.657-3.609-2.262-5.879-2.007c-0.991,0.112-1.679-0.481-1.888-1.445
		c-0.247-1.137-0.382-2.298-0.579-3.531C233.784,250.249,238.549,254.183,239.58,256.733z"/>
	<path d="M493.188,186.482c-1.71-1.475-3.617-2.215-5.9-2.141c-0.571,0.019-1.467-0.472-1.684-0.963
		c-0.524-1.186-0.941-2.491-0.532-3.871C487.596,180.229,491.969,183.898,493.188,186.482z"/>
	<path d="M483.482,180.698c-2.99,2.194-4.401,2.145-6.507-0.112c1.626-1.24,3.62-1.358,5.614-2.096
		C482.898,179.253,483.176,179.94,483.482,180.698z"/>
	<path d="M223.13,250.558c1.948-0.617,3.791-1.201,5.843-1.851c0.306,0.785,0.575,1.474,0.828,2.123
		C227.214,253.122,225.354,253.076,223.13,250.558z"/>
	<path d="M493.473,124.745c2.041,0.821,3.973,1.597,6.252,2.513c-0.704,0.425-1.048,0.7-1.44,0.858
		C494.213,129.756,493.839,129.279,493.473,124.745z"/>
	<path d="M246.04,197.408c-0.43,0.358-0.59,0.555-0.797,0.653c-4.844,2.305-5.043,1.156-5.487-3.138
		C241.852,195.751,243.798,196.521,246.04,197.408z"/>
	<path d="M464.276,135.045c0.072,2.81-1.607,4.776-3.23,7.169C460.35,138.704,462.957,137.185,464.276,135.045z"/>
	<path d="M233.999,186.824c0,2.294,0,4.454,0,6.632C231.831,191.021,231.779,188.761,233.999,186.824z"/>
	<path d="M252.436,198.06c1.783,1.526,3.24,2.731,3.486,4.748c-1.599-0.792-2.419-2.762-5.117-1.575
		C251.486,199.909,251.89,199.122,252.436,198.06z"/>
	<path d="M509.397,132.938c-2.288-2.172-2.288-2.172-4.556-2.506c0.361-0.793,0.694-1.522,1.03-2.26
		C508.456,129.482,509.693,131.105,509.397,132.938z"/>
	<path d="M487.599,116.615c0,2.023,0.005,3.589-0.004,5.156c-0.002,0.354-0.052,0.707-0.096,1.278
		C485.388,119.838,485.356,118.704,487.599,116.615z"/>
	<path d="M467.082,134.22c0.359,0.906,0.612,1.545,0.965,2.437c-0.715-0.287-1.172-0.47-1.688-0.677
		c0.415,2.442,0.415,2.442-0.007,3.348C464.678,137.627,464.771,136.706,467.082,134.22z"/>
	<path d="M213.471,204.404c0.37,0.895,0.63,1.523,0.992,2.399c-0.714-0.215-1.17-0.352-1.653-0.498
		c0.11,1.154,0.207,2.18,0.343,3.61C211.08,207.878,211.164,206.984,213.471,204.404z"/>
	<path d="M224.658,199.445c1.017-0.265,1.765-0.46,2.515-0.656c0.41,1.772,0.331,1.903-1.921,3.149
		C225.069,201.171,224.894,200.435,224.658,199.445z"/>
	<path d="M478.393,129.181c1.027-0.242,1.819-0.428,2.696-0.635c-0.25,2.079-0.25,2.079-2.376,3.167
		C478.612,130.92,478.522,130.205,478.393,129.181z"/>
	<path d="M208.914,209.773c-0.636-1.97,0.511-3.016,1.526-4.228C210.622,207.559,210.504,207.887,208.914,209.773z"/>
	<path d="M209.369,192.976c0.464,0.487,0.929,0.974,1.392,1.458c-0.604,0.976-1.054,1.703-1.722,2.782
		c-0.49-1.533-0.308-2.718-0.228-3.895C208.997,193.206,209.183,193.091,209.369,192.976z"/>
	<path d="M466.768,142.276c0.466-0.514,0.81-0.892,1.327-1.461c0.459,0.957,0.811,1.691,1.335,2.782
		C468.405,143.088,467.704,142.741,466.768,142.276z"/>
	<path d="M215.581,246.209c-0.507-0.978-0.812-1.566-1.157-2.232c0.44-0.046,1.009-0.105,1.868-0.195
		C216.039,244.645,215.85,245.291,215.581,246.209z"/>
	<path d="M467.572,173.685c0.907,0.044,1.523,0.074,2.297,0.111c-0.222,0.72-0.398,1.291-0.569,1.845
		C468.76,175.03,468.264,174.468,467.572,173.685z"/>
	<path d="M214.372,210.962c0.495,0.888,0.859,1.542,1.517,2.722c-1.124-0.525-1.753-0.818-2.555-1.192
		C213.661,212.009,213.937,211.603,214.372,210.962z"/>
	<path d="M262.403,250.06c1.08,0.283,1.721,0.451,2.47,0.647C263.265,251.531,263.265,251.531,262.403,250.06z"/>
	<path d="M518.148,180.847c-0.69,0.114-1.5,0.935-2.158-0.744c0.897,0.09,1.552,0.155,2.207,0.22
		C518.181,180.498,518.164,180.672,518.148,180.847z"/>
	<path d="M467.66,133.097c-0.151-1.091,0.072-1.862,1.644-1.45C468.637,132.235,468.149,132.666,467.66,133.097z"/>
	<path d="M215.549,202.068c-0.512,0.378-1.024,0.755-1.875,1.383C213.921,202.072,214.285,201.489,215.549,202.068z"/>
	<path d="M213.696,200.592c-0.581,0.632-1.162,1.264-1.743,1.897c-0.112-0.095-0.225-0.191-0.337-0.286
		c0.542-0.69,1.084-1.381,1.625-2.071C213.393,200.284,213.545,200.438,213.696,200.592z"/>
	<path d="M467.184,130.529c-0.626,0.645-1.217,1.255-1.809,1.864c-0.114-0.105-0.228-0.211-0.342-0.316
		c0.55-0.617,1.097-1.236,1.661-1.841C466.711,130.218,466.897,130.356,467.184,130.529z"/>
	<path d="M272.648,243.416c0,0.687,0,1.374,0,2.06c-0.136,0.009-0.273,0.019-0.409,0.028c-0.051-0.704-0.101-1.409-0.152-2.113
		C272.274,243.4,272.461,243.408,272.648,243.416z"/>
	<path d="M502.645,120.819c-0.611,0.18-1.222,0.359-1.833,0.539c-0.053-0.16-0.105-0.321-0.158-0.481
		c0.61-0.236,1.22-0.472,1.831-0.709C502.538,120.386,502.592,120.602,502.645,120.819z"/>
	<path d="M247.248,190.968c0.558-0.181,1.117-0.361,1.675-0.542c0.052,0.143,0.103,0.286,0.155,0.429
		c-0.551,0.232-1.102,0.464-1.652,0.696C247.367,191.357,247.308,191.162,247.248,190.968z"/>
	<path d="M272.665,238.029c-0.031,0.559-0.062,1.119-0.093,1.678c-0.183-0.02-0.366-0.04-0.549-0.061
		c0.077-0.552,0.154-1.104,0.231-1.655C272.391,238.004,272.528,238.016,272.665,238.029z"/>
	<path d="M500.288,184.673c-0.592,0.07-1.183,0.139-1.775,0.209c-0.026-0.153-0.051-0.305-0.077-0.458
		c0.585-0.116,1.169-0.233,1.754-0.349C500.223,184.274,500.256,184.474,500.288,184.673z"/>
	<path d="M246.601,254.821c-0.524,0.123-1.049,0.247-1.573,0.37c-0.043-0.161-0.086-0.323-0.128-0.484
		c0.501-0.135,1.001-0.271,1.502-0.406C246.468,254.474,246.534,254.648,246.601,254.821z"/>
	<path d="M114.083,176.848c0,1.252,0,2.505,0,3.757c-0.065,0-0.13,0-0.195,0c0-1.252,0-2.505,0-3.757
		C113.954,176.848,114.018,176.848,114.083,176.848z"/>
	<path d="M694.791,159.634c0.894-1.555,1.587-2.76,2.39-4.156c0.512,1.068,0.912,1.92,1.327,2.764
		c1.606,3.267,4.286,4.805,7.872,4.868c0.719,0.013,1.446,0.071,2.155-0.011c1.962-0.226,3.536,0.27,4.816,1.908
		c1.409,1.804,3.213,1.918,5.228,0.458c0.592,0.535,1.139,1.03,1.966,1.778c-0.821,0.193-1.247,0.298-1.674,0.393
		c-1.32,0.293-2.72,0.988-3.937,0.75c-1.069-0.209-1.934-1.466-2.968-2.325c-3.697,1.602-7.279,0.263-10.343-1.556
		c-4.593-2.727-9.518-4.442-14.473-6.198c-1.539-0.545-3.055-1.157-4.581-1.738c-0.004-0.183-0.007-0.366-0.011-0.549
		c0.69-0.187,1.373-0.485,2.072-0.528c0.615-0.038,1.251,0.198,1.873,0.333c2.633,0.572,3.046,0.392,4.417-1.959
		C694.602,153.884,694.142,156.949,694.791,159.634z"/>
	<path d="M714.582,169.538c2.452,3.955,4.835,7.798,7.348,11.852c-0.381,0.528-0.823,1.14-1.495,2.071
		c-2.2-3.247-4.313-6.194-6.227-9.264C713.25,172.657,713.475,171.566,714.582,169.538z"/>
	<path d="M656.411,242.368c0.621-1.741,1.095-3.172,1.643-4.575c0.651-1.666,1.924-2.493,3.705-2.513
		c1.561-0.017,3.123-0.004,4.814,0.455c-0.36,0.351-0.685,0.751-1.087,1.045c-1.674,1.225-3.401,2.381-5.042,3.647
		c-0.495,0.382-0.775,1.041-1.416,1.941C658.636,242.368,657.718,242.368,656.411,242.368z"/>
	<path d="M678.017,156.861c2.578,1.253,5.151,2.175,7.404,3.872c-3.526,0.357-6.896-0.293-10.785-0.887
		C676.012,158.632,677,157.759,678.017,156.861z"/>
	<path d="M652.333,230.013c-0.826,0.566-1.652,1.133-2.592,1.778c-1.37-1.211-2.656-2.348-4.154-3.672
		C648.497,226.606,650.098,229.101,652.333,230.013z"/>
	<path d="M675.337,244.227c-0.523-0.387-1.047-0.632-1.364-1.039c-0.719-0.921-0.441-1.908,0.708-2.207
		c1.282-0.334,2.627-0.428,4.036-0.64C678.04,242.23,677.839,242.461,675.337,244.227z"/>
	<path d="M735.271,173.133c-0.763,2.38-1.427,4.45-2.158,6.731C731.59,176.543,732.328,174.153,735.271,173.133z"/>
	<path d="M644.184,201.508c-0.412-1.516-0.774-2.724-1.051-3.951c-0.073-0.324,0.114-0.708,0.182-1.064
		c0.412,0.113,0.917,0.112,1.22,0.359C646.449,198.413,646.419,199.203,644.184,201.508z"/>
	<path d="M716.545,201.015c0.65,1.861,0.972,3.774,1.172,5.966c-1.628-0.539-1.393-1.791-1.671-2.721
		c-0.337-1.132-0.746-2.319,0.544-3.192L716.545,201.015z"/>
	<path d="M716.591,201.069c2.042-1.671,3.034-1.418,5.066,1.67c-1.966-0.662-3.537-1.19-5.11-1.721
		C716.545,201.015,716.591,201.069,716.591,201.069z"/>
</g>
</svg>
