<?xml version="1.0" encoding="utf-8"?>
<!-- Generator: Adobe Illustrator 17.1.0, SVG Export Plug-In . SVG Version: 6.00 Build 0)  -->
<!DOCTYPE svg PUBLIC "-//W3C//DTD SVG 1.1//EN" "http://www.w3.org/Graphics/SVG/1.1/DTD/svg11.dtd">
<svg version="1.1" xmlns="http://www.w3.org/2000/svg" xmlns:xlink="http://www.w3.org/1999/xlink" x="0px" y="0px"
	 viewBox="-67.2 412.8 954.1 396" enable-background="new -67.2 412.8 954.1 396" xml:space="preserve">
<g id="Layer_2">
	<rect x="-67.2" y="412.8" fill="#020202" width="954.1" height="396"/>
</g>
<g id="Layer_1">
	<g>
		<path fill="#FCFAFA" d="M533.9,665.8c-4.6,0-8.7,0-13.5,0c-4.3-30.1-8.7-60.2-13-90.3c-0.3,0-0.5,0-0.8,0c0,1.6,0,3.2,0,4.8
			c0,23-0.1,46,0.1,69c0,5.5-2.1,11.7,5.2,15.4c-0.4,0.3-0.7,0.6-1.1,0.9c-6.3,0-12.5,0-18.9,0c0-0.6-0.3-1.2-0.1-1.4
			c4.5-3.2,4-7.9,4-12.6c0-38.3,0-76.5,0-114.8c0-4.7,0.3-9.4-4.6-12.6c0.2-0.4,0.4-0.9,0.6-1.3c3.8,0,7.5,0,11.3,0
			c8.9,0,8.9,0,10.1,8.8c3,22.2,5.9,44.3,8.9,66.5c0.2,1.4,0.7,2.8,1.5,4.1c0-23.3,0.1-46.6-0.1-69.9c0-2.9-2-5.7-3.3-8.9
			c5.4,0,11.2,0,17.3,0c-6.7,10.3-3.4,21.7-3.6,32.5c-0.4,34.8-0.2,69.6-0.2,104.4C533.9,662,533.9,663.8,533.9,665.8z"/>
		<path fill="#FCFAFA" d="M179.1,665.8c-4.6,0-8.7,0-13.4,0c-4.4-30.2-8.7-60.4-13.1-90.6c-0.3,0-0.5,0-0.8,0.1c0,6.8,0,13.5,0,20.3
			c0,18.2,0,36.3,0,54.5c0,5.3-1.4,11.1,5,14.6c-0.3,0.3-0.5,0.6-0.8,0.9c-6.2,0-12.5,0-18.8,0c0-0.4-0.3-1.1-0.1-1.3
			c4.6-3.4,3.8-8.3,3.8-13.1c0-38,0-75.9,0-113.9c0-4.8,0.9-9.8-4.6-13.1c0.3-0.4,0.5-0.9,0.8-1.3c4.7,0,9.4,0,14.1,0
			c6.3,0,6.2,0,7,6.2c3.3,24.4,6.6,48.8,10.8,73.1c0-1.5,0-2.9,0-4.4c0-20.3,0.1-40.5-0.1-60.8c-0.1-4.4-1.4-8.8-2.3-13.6
			c4.5,0,10.2,0,17,0c-6.1,6.4-4.4,13.7-4.4,20.6c-0.1,38.7,0,77.4,0,116.2C179.1,662,179.1,663.8,179.1,665.8z"/>
		<path fill="#FCFAFA" d="M690.4,606.6c-0.4,12.6-0.9,25.2-1.1,37.8c-0.1,3.4,0.6,6.9,1.4,10.3c0.3,1.1,1.9,2,2.8,3
			c0.9-1.1,2.4-2,2.6-3.2c2.5-19,4.4-38-5.8-55.6c-2.6-4.6-5.2-9.2-7.8-13.8c-9.6-16.4-10.4-34.1-7-52.2c1.5-8.2,7.7-12,16.8-11.8
			c8.1,0.3,13.9,4.6,14.8,12.5c1,8.7,1.2,17.5,1.5,26.2c0,1.2-0.9,2.9-1.9,3.6c-3.8,2.4-7.8,4.5-11.1,6.5c0-7.5,0.1-15,0-22.4
			c-0.1-4.1-0.4-8.1-1.1-12.2c-0.3-1.7-1.5-3.3-2.3-4.9c-0.5,0-1,0-1.6,0c-0.8,2-2,3.9-2.3,5.9c-2.1,17.6,0.4,34.4,10.5,49.4
			c7.2,10.7,12,22.3,13.5,35.2c1.3,11,1.2,22-1.6,32.9c-2.4,9.5-7.9,14.3-16.1,14.6c-8.7,0.3-14.7-4-17.6-13.3
			c-3.8-12-3.2-24.5-2.4-36.9c0.1-0.9,0.7-2.1,1.5-2.5C681,612.3,686,609.3,690.4,606.6z"/>
		<path fill="#FCFAFA" d="M220.9,638.4c-3.2,0-5.6,0-8.5,0c0.9,9.2-4.8,18.4,3.4,27.7c-7.2,0-12.8,0-18.5-0.1
			c-0.6,0-1.6-0.7-1.6-1.1c0-0.7,0.5-1.8,1-2.1c3.4-1.7,3.9-4.6,4.2-7.9c3.2-38.4,6.5-76.8,9.7-115.2c0.5-5.4,0.8-10.8,1.2-16.6
			c4.8,0,9.4,0,14.3,0c0.6,8.8,1.3,17.5,1.8,26.2c2.2,35.6,4.4,71.2,6.7,106.8c0.1,2.2,1.9,4.2,3,6.3c0.5,0.9,1.1,1.8,2.1,3.3
			c-8,0-15,0-22.5,0c0.1-0.9-0.1-2.4,0.4-2.7c3.8-2.2,3.4-5.7,3.3-9.2C220.9,648.9,220.9,643.9,220.9,638.4z M217.9,575.6
			c-0.2,0-0.4,0-0.7,0c-1.3,17.5-2.6,34.9-3.9,52.6c2.5,0,4.4,0,6.8,0C219.3,610.5,218.6,593,217.9,575.6z"/>
		<path fill="#FCFAFA" d="M449,523.2c5,0,9.4,0,14.3,0c0.4,6.8,0.9,13.5,1.3,20.1c1.7,27.5,3.3,54.9,5,82.4c0.6,9.7,1,19.3,2,29
			c0.3,2.8,2.1,5.4,3.3,8c0.3,0.8,1.2,2,0.9,2.2c-0.6,0.6-1.6,1.2-2.5,1.2c-6.2,0.1-12.4,0.1-19.5,0.1c0.7-1.6,1-2.6,1.5-3.6
			c0.9-1.7,2.6-3.2,2.7-4.9c0.3-6.3,0.1-12.6,0.1-19.2c-3.4,0-5.7,0-8.5,0c-0.4,6.6-1,13-1.1,19.5c0,1.6,1.4,3.1,2.1,4.7
			c0.4,0.8,1.1,1.6,1,2.2c-0.2,0.6-1.3,1.2-2,1.2c-4.8,0.1-9.7,0.1-14.5,0c-0.7,0-1.8-0.7-2-1.2c-0.2-0.6,0.6-1.5,1-2.2
			c1.3-2.5,3.5-5,3.7-7.6c2.9-32.1,5.4-64.1,8.1-96.2C446.8,547,447.9,535.3,449,523.2z M457.1,628.3c-0.7-17.8-1.4-35.2-2-52.7
			c-0.2,0-0.5,0-0.7,0c-1.3,17.5-2.6,35-3.9,52.7C452.7,628.3,454.5,628.3,457.1,628.3z"/>
		<path fill="#FCFAFA" d="M656.5,666.1c-7.8,0-14,0-20.1,0c-0.9,0-1.8-0.6-2.8-1c0.4-0.9,0.8-1.8,1.1-2.7c0.9-2.1,2.4-4.2,2.5-6.4
			c0.4-5.7,0.1-11.4,0.1-17.5c-3.1,0-5.4,0-8.4,0c0.7,8.9-4.8,18.2,3.3,27.5c-7,0-12.5,0-18-0.1c-0.7,0-1.8-0.6-2-1.2
			c-0.2-0.5,0.4-1.8,1-2.1c3.6-1.8,3.9-5,4.2-8.4c2.9-34.9,5.8-69.8,8.8-104.7c0.7-8.7,1.4-17.4,2.1-26.4c4.7,0,9.2,0,14.2,0
			c0.4,4.7,0.9,9.4,1.2,14.2c2.5,39.6,4.9,79.3,7.5,118.9c0.1,2,1.7,4,2.7,5.9C654.3,663.3,655.1,664.1,656.5,666.1z M634.4,576.5
			c-0.3,0-0.6,0-0.8,0c-1.3,17.2-2.6,34.4-3.9,51.8c2.5,0,4.4,0,6.7,0C635.8,610.8,635.1,593.6,634.4,576.5z"/>
		<path fill="#FCFAFA" d="M33.2,523.2c13.7,0,28.2,0,43.2,0c0,2.5,0,5.2,0,7.9c0,12.4,0,24.8-0.1,37.2c0,1.2-1,2.4-1.6,3.5
			c-0.9-1.1-2.2-2.1-2.5-3.4c-2.7-9.8-4.8-19.9-7.9-29.6c-1.4-4.5-5-8-11-7.3c0,16.3,0,32.6,0,48.8c0.3,0.3,0.6,0.6,1,0.9
			c1.6-1.9,4-3.5,4.7-5.6c1.5-4.4,1.9-9.1,3.1-13.6c0.3-1.2,1.4-2.2,2.1-3.2c0.4,0.2,0.9,0.5,1.3,0.7c0,19.4,0,38.9,0,58.5
			c-2.4,0.9-3.3,0.2-3.6-2.5c-0.6-5.2-1.5-10.5-3-15.5c-0.7-2.4-2.9-4.4-4.4-6.6c-0.4,0.2-0.9,0.4-1.3,0.7c-0.1,0.8-0.2,1.7-0.2,2.5
			c0,19.2,0,38.4,0,57.6c0,3.6,0.6,6.9,4.2,8.9c0.6,0.3,0.8,1.3,1.7,2.9c-8.6,0-16.4,0-24.1,0c-0.6,0-1.7-0.7-1.7-1
			c0-0.7,0.4-1.8,1-2.1c3.6-1.8,4-5,4-8.4c0-40.8,0.1-81.7-0.2-122.5C37.8,529.1,34.9,526.3,33.2,523.2z"/>
		<path fill="#FCFAFA" d="M381.5,523.2c13.9,0,28.4,0,43.2,0c0,16.1,0,32.2,0,48.3c-4,1.4-3.7-1.5-4.2-3.8c-2.1-8.9-4-17.9-6.7-26.7
			c-0.9-3-3.4-5.6-5.8-7.9c-1.3-1.3-3.7-1.4-6.3-2.2c0,17,0,33.2,0,49.4c5.5-0.6,7.7-5.7,8.8-20.4c2.3-1.1,3.5-0.8,3.5,2.1
			c0,18.6,0,37.2,0,55.9c-2.5,1-3.4,0.7-3.9-2.2c-0.8-5.6-2-11.3-3.5-16.8c-0.6-2-2.6-3.6-4-5.4c-0.4,0.2-0.8,0.4-1.2,0.5
			c-0.1,1.4-0.2,2.8-0.2,4.2c0,18.1,0,36.3,0,54.4c0,4.4,0.3,8.5,4.9,10.8c0.4,0.2,0.4,1,0.6,1.8c-0.7,0.3-1.2,0.6-1.7,0.7
			c-7.1,0.1-14.2,0.1-21.3,0c-0.8,0-1.6-0.8-2.5-1.3c0.5-0.7,0.7-1.6,1.4-2c3.3-1.8,3.9-4.9,3.9-8.1c0-41,0.1-81.9-0.2-122.9
			C386.4,529.1,383.4,526.4,381.5,523.2z"/>
		<path fill="#FCFAFA" d="M274.7,657.3c1.7-2.3,4.1-4.4,4.8-7c3.4-11.2,6.3-22.6,9.3-34c0.5-2,0.4-4.3,1.1-6.2
			c0.5-1.3,1.9-2.2,3-3.3c0.4,0.3,0.7,0.6,1.1,0.9c0,19.2,0,38.3,0,57.9c-13.1,0-26.1,0-39.9,0c0.4-1,0.7-2,1-2.9
			c1.2-3.4,3.4-6.9,3.5-10.3c0.2-39.1,0.2-78.3,0-117.4c0-2.6-2.2-5.2-3.4-7.8c-0.5-1-1.4-2.2-1.1-3c0.2-0.7,1.8-1.3,2.8-1.4
			c5.7-0.1,11.5-0.1,17.2,0c1,0,2.1,0.7,3.1,1.1c-0.5,1.2-0.9,2.3-1.4,3.5c-0.8,2.1-2.4,4.3-2.4,6.4c-0.1,39.9-0.1,79.8-0.1,119.7
			c0,1,0.1,2,0.2,3C273.9,656.9,274.3,657.1,274.7,657.3z"/>
		<path fill="#FCFAFA" d="M558.4,523c13.9,0,26.7,0,40.1,0c0,16.7,0,33.1,0,50c-1,0.1-2.4,0.1-4,0.2c-2-12.4-2.9-24.8-9.5-35.9
			c-0.1,1.4-0.2,2.8-0.2,4.2c0,36.4-0.1,72.9-0.1,109.3c0,4.9-1,10.1,4.1,13.7c-0.2,0.3-0.5,0.6-0.7,0.8c-7.1,0-14.2,0-21.4,0
			c0-0.6-0.1-1.4,0.1-1.5c5.9-3,5.2-8.4,5.2-13.7c0-36,0-72,0-107.9c0-1.6,0-3.2,0-4.8c-7,10.8-7.6,23.3-10.1,35.4
			c-1.3,0-2.6,0-3.5,0C558.4,556.3,558.4,539.9,558.4,523z"/>
		<path fill="#FCFAFA" d="M760.2,665.7c-7.3,0-14.5,0-22,0c0.1-0.8-0.1-1.7,0.2-1.9c4.7-2.9,4.3-7.5,4.3-12
			c-0.1-9.5-0.4-19.1,0.1-28.6c0.9-19.2-2.8-37.9-5.1-56.8c-1.2-10.2-2.5-20.4-4.3-30.5c-0.6-3.5-2.7-6.7-4.1-10.1
			c-0.3-0.8-0.4-1.6-0.6-2.6c7.1,0,13.9,0,21.1,0c-7.2,10.2-1.2,20.4-1.4,30.3c-0.1,5.7,1.1,11.4,2.3,17.1
			c0.9-8.6,1.9-17.1,2.8-25.7c0.4-3.8,1.1-7.5,0.9-11.3c-0.1-2.6-1.1-5.3-2.3-7.7c-1-2-1.2-3.2,1.3-3.3c5-0.1,10-0.1,15,0
			c0.7,0,1.5,0.7,2.2,1.1c-0.5,0.8-0.7,2.1-1.4,2.3c-3.2,1.3-3.7,3.9-4,6.9c-2.8,23.4-6.2,46.7-8.5,70.1c-1.1,10.9-0.3,22-0.3,33.1
			c0,4.4,0,8.8,0,13.2c0.1,5.5-1.2,11.3,4.7,15.3C760.7,665,760.5,665.4,760.2,665.7z"/>
		<path fill="#FCFAFA" d="M92.1,523.1c7.7,0,15.4,0,24.4,0c-7.2,5.7-5.5,12.6-5.5,19.1c-0.1,37.5,0,75-0.1,112.5
			c0,3.3,0,6.4,3.3,8.3c0.5,0.3,1,1.8,0.7,2.2c-0.4,0.6-1.5,0.9-2.3,0.9c-6.8,0.1-13.6,0-21.2,0c0.6-1.5,0.8-2.9,1.4-3.3
			c3.3-1.9,3.6-4.8,3.6-8.1c0-38.2,0-76.5,0-114.7c0-5.8,1.3-12-5.5-15.9C91.4,523.7,91.7,523.4,92.1,523.1z"/>
	</g>
</g>
</svg>
